<svg width="256" height="256" viewBox="0 0 256 256" fill="none" xmlns="http://www.w3.org/2000/svg">
  <rect width="256" height="256" rx="64" fill="#140D0B"></rect>
  <rect x="10" y="10" width="236" height="236" rx="54" stroke="#D7B46A" stroke-opacity="0.25" stroke-width="2"></rect>

  <defs>
    <linearGradient id="bgGlow" x1="32" y1="20" x2="220" y2="220" gradientUnits="userSpaceOnUse">
      <stop stop-color="#7C3AED"></stop>
      <stop offset="0.45" stop-color="#1A0F0D"></stop>
      <stop offset="1" stop-color="#2C120B"></stop>
    </linearGradient>
    <linearGradient id="cake" x1="72" y1="92" x2="184" y2="188" gradientUnits="userSpaceOnUse">
      <stop stop-color="#F7EAD1"></stop>
      <stop offset="1" stop-color="#D7B46A"></stop>
    </linearGradient>
    <linearGradient id="purple" x1="76" y1="88" x2="192" y2="176" gradientUnits="userSpaceOnUse">
      <stop stop-color="#E9D5FF"></stop>
      <stop offset="1" stop-color="#C084FC"></stop>
    </linearGradient>
  </defs>

  <rect x="20" y="20" width="216" height="216" rx="48" fill="url(#bgGlow)"></rect>

  <!-- base cake -->
  <rect x="68" y="134" width="120" height="44" rx="16" fill="url(#cake)"></rect>
  <rect x="76" y="112" width="104" height="28" rx="14" fill="url(#purple)"></rect>

  <!-- candle -->
  <rect x="122" y="76" width="12" height="40" rx="6" fill="#F7EAD1"></rect>
  <rect x="122" y="76" width="6" height="40" rx="3" fill="#D7B46A" fill-opacity="0.35"></rect>

  <!-- flame -->
  <path d="M128 56C134 62 138 68 138 74C138 81 133.5 86 128 86C122.5 86 118 81 118 74C118 68 122 63 128 56Z" fill="#F59E0B"></path>
  <path d="M128 63C131.5 67 133.5 70.5 133.5 74C133.5 78 131 81 128 81C125 81 122.5 78 122.5 74C122.5 70.5 124.5 67 128 63Z" fill="#FDE68A"></path>

  <!-- plate -->
  <rect x="58" y="182" width="140" height="12" rx="6" fill="#D7B46A" fill-opacity="0.75"></rect>

  <!-- sparkles -->
  <path d="M64 72L66.5 78L72 80.5L66.5 83L64 89L61.5 83L56 80.5L61.5 78L64 72Z" fill="#F9A8D4"></path>
  <path d="M192 64L194.5 70L200 72.5L194.5 75L192 81L189.5 75L184 72.5L189.5 70L192 64Z" fill="#C084FC"></path>
  <path d="M198 118L200 123L205 125L200 127L198 132L196 127L191 125L196 123L198 118Z" fill="#F9A8D4"></path>
  <path d="M58 120L60 125L65 127L60 129L58 134L56 129L51 127L56 125L58 120Z" fill="#C084FC"></path>

  <!-- tiny butterfly -->
  <g transform="translate(174 154)">
    <ellipse cx="8" cy="6" rx="6" ry="5" fill="#F9A8D4"></ellipse>
    <ellipse cx="20" cy="6" rx="6" ry="5" fill="#D8B4FE"></ellipse>
    <ellipse cx="10" cy="18" rx="5" ry="4" fill="#FBCFE8"></ellipse>
    <ellipse cx="18" cy="18" rx="5" ry="4" fill="#C084FC"></ellipse>
    <rect x="13" y="6" width="2" height="14" rx="1" fill="#F7EAD1"></rect>
  </g>
</svg>